# xmcd CD database file
#
# Track frame offsets:
#	150
#	15130
#	32485
#	49112
#	72755
#	88702
#	99532
#	115760
#	133655
#	148292
#	163297
#
# Disc length: 2408 seconds
#
# Revision: 0
# Processed by: cddbd v1.4PL0 Copyright (c) Steve Scherf et al.
# Submitted via: CDex 1.51
#
DISCID=8f09660b
DTITLE=The Mavericks - What A Crying Shame
DYEAR=1994
DGENRE=Country
TTITLE0=There Goes My Heart
TTITLE1=What A Crying Shame
TTITLE2=Pretend
TTITLE3=I Should Have Been True
TTITLE4=The Things You Said To Me
TTITLE5=Just A Memory
TTITLE6=All That Heaven Will Allow
TTITLE7=Neon Blue
TTITLE8=O What A Thrill
TTITLE9=Ain't Found Nobody
TTITLE10=The Losing Side Of Me
EXTD=YEAR: 1994
EXTT0=
EXTT1=
EXTT2=
EXTT3=
EXTT4=
EXTT5=
EXTT6=
EXTT7=
EXTT8=
EXTT9=
EXTT10=
PLAYORDER=
